<svg xmlns="http://www.w3.org/2000/svg" viewBox="0 0 500 500" version="1.1" id="svg_null"><g id="root" stroke="none" stroke-width="1" fill="none" fill-rule="evenodd"><rect id="background.accent" fill="#474168" x="0" y="0" width="500" height="500"/><g id="shape.primary" transform="translate(150.000000, 123.000000)" fill="#f9c4ac"><path d="M164.662 0l-89.688 0l-34.607 32.058l79.451 86.99l79.452 -86.99l-34.608 -32.058zm-4.104 11.775l22.67 20.999l-63.41 69.421l-63.407 -69.421l22.668 -20.999l81.479 0z"/><path d="M124.295 0l-89.688 0l-34.607 32.058l79.451 86.99l79.454 -86.99l-34.61 -32.058zm-4.104 11.775l22.67 20.999l-63.41 69.421l-63.407 -69.421l22.668 -20.999l81.479 0z"/><polyline points="109.604 17.663 92.789 17.663 109.103 32.776 86.239 57.808 93.934 66.233 125.145 32.059 109.604 17.663"/></g><g id="Group" transform="translate(40.000000, 280.000000)"><rect id="Rectangle-28" x="0" y="0" width="421" height="54"/><text id="headerText.primary" font-family="Anonymous Pro" font-size="46.561734693239764" font-weight="700" line-spacing="54" letter-spacing="4.311271730855534" fill="#f9c4ac" data-text-alignment="C" font-style="normal"><tspan x="2.393890380859375" y="38">Peluqueria S&amp;L</tspan></text></g><g id="Group-2" transform="translate(40.000000, 350.000000)"><rect id="Rectangle" x="0" y="0" width="420" height="30"/><text id="captionText.primary" font-family="Anonymous Pro" font-size="25" font-weight="400" line-spacing="25" letter-spacing="2.5" fill="#f9c4ac" data-text-alignment="C" font-style="normal"><tspan x="210" y="139"/></text></g></g></svg>